<?xml version="1.0" encoding="utf-8"?>
<!-- Generator: Adobe Illustrator 24.0.0, SVG Export Plug-In . SVG Version: 6.00 Build 0)  -->
<svg version="1.1" id="Layer_1" xmlns="http://www.w3.org/2000/svg" xmlns:xlink="http://www.w3.org/1999/xlink" x="0px" y="0px"
	 viewBox="0 0 160.1 160.1" style="enable-background:new 0 0 160.1 160.1;" xml:space="preserve">
<style type="text/css">
	.st0{fill:#FFFFFF;}
	.st1{fill:#5A46FF;}
</style>
<path class="st0" d="M80.1,0C15.5,0,0,15.5,0,80.1s15.5,80.1,80.1,80.1c64.6,0,80.1-15.5,80.1-80.1S144.6,0,80.1,0z"/>
<title>Adonis</title>
<path class="st1" d="M55.3,105.7c7.3-3.4,15.8-5.1,24.8-5.1c8.6,0,17.4,1.6,24.5,5.1L80.1,49.6L55.3,105.7z"/>
<path class="st1" d="M80.1,0C15.5,0,0,15.5,0,80.1s15.5,80.1,80.1,80.1c64.6,0,80.1-15.5,80.1-80.1S144.6,0,80.1,0z M105.8,130.3
	c-4.8,0-8.7-1.2-12.6-2.5l0,0c-4-1.3-8-2.6-13.2-2.6c-5.1,0-9.3,1.3-13.3,2.6l0,0c-3.9,1.2-7.8,2.5-12.4,2.5
	c-14.2,0-24.1-9.9-24.1-24.1c0-3.1,1-6.7,2.1-9.5l25.1-57.1c4.2-9.6,12.4-14.8,22.7-14.8c10.3,0,18.4,5.2,22.7,14.8l25.1,57.1
	c1.1,2.8,2.1,6.4,2.1,9.5C130,120.3,120,130.3,105.8,130.3z"/>
</svg>
